<mxfile host="65bd71144e">
    <diagram id="tHbLQ-PIQ2T-KpJh9ZMo" name="第 1 页">
        <mxGraphModel dx="339" dy="219" grid="1" gridSize="10" guides="1" tooltips="1" connect="1" arrows="1" fold="1" page="1" pageScale="1" pageWidth="827" pageHeight="1169" math="0" shadow="0">
            <root>
                <mxCell id="0"/>
                <mxCell id="1" parent="0"/>
                <mxCell id="11" value="3" style="whiteSpace=wrap;html=1;aspect=fixed;strokeWidth=2;fontSize=16;fontFamily=Lucida Console;" parent="1" vertex="1">
                    <mxGeometry x="240" y="440" width="40" height="40" as="geometry"/>
                </mxCell>
                <mxCell id="2" value="4" style="whiteSpace=wrap;html=1;aspect=fixed;strokeWidth=2;fontSize=16;fontFamily=Lucida Console;" parent="1" vertex="1">
                    <mxGeometry x="200" y="360" width="40" height="40" as="geometry"/>
                </mxCell>
                <mxCell id="4" value="4" style="whiteSpace=wrap;html=1;aspect=fixed;strokeWidth=2;fontSize=16;fontFamily=Lucida Console;" parent="1" vertex="1">
                    <mxGeometry x="240" y="360" width="40" height="40" as="geometry"/>
                </mxCell>
                <mxCell id="5" value="5" style="whiteSpace=wrap;html=1;aspect=fixed;strokeWidth=2;fontSize=16;fontFamily=Lucida Console;" parent="1" vertex="1">
                    <mxGeometry x="280" y="360" width="40" height="40" as="geometry"/>
                </mxCell>
                <mxCell id="6" value="5" style="whiteSpace=wrap;html=1;aspect=fixed;strokeWidth=2;fontSize=16;fontFamily=Lucida Console;" parent="1" vertex="1">
                    <mxGeometry x="320" y="360" width="40" height="40" as="geometry"/>
                </mxCell>
                <mxCell id="7" value="6" style="whiteSpace=wrap;html=1;aspect=fixed;strokeWidth=2;fontSize=16;fontFamily=Lucida Console;" parent="1" vertex="1">
                    <mxGeometry x="360" y="360" width="40" height="40" as="geometry"/>
                </mxCell>
                <mxCell id="8" value="6" style="whiteSpace=wrap;html=1;aspect=fixed;strokeWidth=2;fontSize=16;fontFamily=Lucida Console;" parent="1" vertex="1">
                    <mxGeometry x="400" y="360" width="40" height="40" as="geometry"/>
                </mxCell>
                <mxCell id="10" value="3" style="whiteSpace=wrap;html=1;aspect=fixed;strokeWidth=2;fontSize=16;fontFamily=Lucida Console;" parent="1" vertex="1">
                    <mxGeometry x="200" y="440" width="40" height="40" as="geometry"/>
                </mxCell>
                <mxCell id="12" value="4" style="whiteSpace=wrap;html=1;aspect=fixed;strokeWidth=2;fontSize=16;fontFamily=Lucida Console;" parent="1" vertex="1">
                    <mxGeometry x="280" y="440" width="40" height="40" as="geometry"/>
                </mxCell>
                <mxCell id="13" value="4" style="whiteSpace=wrap;html=1;aspect=fixed;strokeWidth=2;fontSize=16;fontFamily=Lucida Console;" parent="1" vertex="1">
                    <mxGeometry x="320" y="440" width="40" height="40" as="geometry"/>
                </mxCell>
                <mxCell id="16" value="4" style="whiteSpace=wrap;html=1;aspect=fixed;strokeWidth=2;fontSize=16;fontFamily=Lucida Console;" parent="1" vertex="1">
                    <mxGeometry x="200" y="520" width="40" height="40" as="geometry"/>
                </mxCell>
                <mxCell id="17" value="4" style="whiteSpace=wrap;html=1;aspect=fixed;strokeWidth=2;fontSize=16;fontFamily=Lucida Console;" parent="1" vertex="1">
                    <mxGeometry x="240" y="520" width="40" height="40" as="geometry"/>
                </mxCell>
                <mxCell id="18" value="5" style="whiteSpace=wrap;html=1;aspect=fixed;strokeWidth=2;fontSize=16;fontFamily=Lucida Console;" parent="1" vertex="1">
                    <mxGeometry x="280" y="520" width="40" height="40" as="geometry"/>
                </mxCell>
                <mxCell id="19" value="5" style="whiteSpace=wrap;html=1;aspect=fixed;strokeWidth=2;fontSize=16;fontFamily=Lucida Console;" parent="1" vertex="1">
                    <mxGeometry x="320" y="520" width="40" height="40" as="geometry"/>
                </mxCell>
                <mxCell id="20" value="7" style="whiteSpace=wrap;html=1;aspect=fixed;strokeWidth=2;fontSize=16;fontFamily=Lucida Console;" parent="1" vertex="1">
                    <mxGeometry x="360" y="520" width="40" height="40" as="geometry"/>
                </mxCell>
                <mxCell id="21" value="7" style="whiteSpace=wrap;html=1;aspect=fixed;strokeWidth=2;fontSize=16;fontFamily=Lucida Console;" parent="1" vertex="1">
                    <mxGeometry x="400" y="520" width="40" height="40" as="geometry"/>
                </mxCell>
                <mxCell id="23" value="&lt;b style=&quot;font-size: 16px;&quot;&gt;&lt;font style=&quot;font-size: 16px;&quot;&gt;4&lt;/font&gt;&lt;/b&gt;" style="text;html=1;align=center;verticalAlign=middle;resizable=0;points=[];autosize=1;strokeColor=none;fillColor=none;fontSize=16;fontFamily=Lucida Console;" parent="1" vertex="1">
                    <mxGeometry x="205" y="330" width="30" height="30" as="geometry"/>
                </mxCell>
                <mxCell id="24" value="&lt;b style=&quot;font-size: 16px;&quot;&gt;&lt;font style=&quot;font-size: 16px;&quot;&gt;6&lt;/font&gt;&lt;/b&gt;" style="text;html=1;align=center;verticalAlign=middle;resizable=0;points=[];autosize=1;strokeColor=none;fillColor=none;fontSize=16;fontFamily=Lucida Console;" parent="1" vertex="1">
                    <mxGeometry x="285" y="330" width="30" height="30" as="geometry"/>
                </mxCell>
                <mxCell id="25" value="&lt;b style=&quot;font-size: 16px;&quot;&gt;&lt;font style=&quot;font-size: 16px;&quot;&gt;5&lt;/font&gt;&lt;/b&gt;" style="text;html=1;align=center;verticalAlign=middle;resizable=0;points=[];autosize=1;strokeColor=none;fillColor=none;fontSize=16;fontFamily=Lucida Console;" parent="1" vertex="1">
                    <mxGeometry x="245" y="330" width="30" height="30" as="geometry"/>
                </mxCell>
                <mxCell id="26" value="&lt;b style=&quot;font-size: 16px;&quot;&gt;&lt;font style=&quot;font-size: 16px;&quot;&gt;8&lt;/font&gt;&lt;/b&gt;" style="text;html=1;align=center;verticalAlign=middle;resizable=0;points=[];autosize=1;strokeColor=none;fillColor=none;fontSize=16;fontFamily=Lucida Console;" parent="1" vertex="1">
                    <mxGeometry x="365" y="330" width="30" height="30" as="geometry"/>
                </mxCell>
                <mxCell id="27" value="&lt;b style=&quot;font-size: 16px;&quot;&gt;&lt;font style=&quot;font-size: 16px;&quot;&gt;7&lt;/font&gt;&lt;/b&gt;" style="text;html=1;align=center;verticalAlign=middle;resizable=0;points=[];autosize=1;strokeColor=none;fillColor=none;fontSize=16;fontFamily=Lucida Console;" parent="1" vertex="1">
                    <mxGeometry x="325" y="330" width="30" height="30" as="geometry"/>
                </mxCell>
                <mxCell id="29" value="&lt;b style=&quot;font-size: 16px;&quot;&gt;&lt;font style=&quot;font-size: 16px;&quot;&gt;9&lt;/font&gt;&lt;/b&gt;" style="text;html=1;align=center;verticalAlign=middle;resizable=0;points=[];autosize=1;strokeColor=none;fillColor=none;fontSize=16;fontFamily=Lucida Console;" parent="1" vertex="1">
                    <mxGeometry x="405" y="330" width="30" height="30" as="geometry"/>
                </mxCell>
                <mxCell id="30" value="logindex:" style="text;html=1;align=center;verticalAlign=middle;resizable=0;points=[];autosize=1;strokeColor=none;fillColor=none;fontSize=16;strokeWidth=2;fontFamily=Lucida Console;" parent="1" vertex="1">
                    <mxGeometry x="105" y="330" width="110" height="30" as="geometry"/>
                </mxCell>
                <mxCell id="31" value="term:" style="text;html=1;align=center;verticalAlign=middle;resizable=0;points=[];autosize=1;strokeColor=none;fillColor=none;fontSize=16;fontFamily=Lucida Console;" parent="1" vertex="1">
                    <mxGeometry x="135" y="365" width="70" height="30" as="geometry"/>
                </mxCell>
                <mxCell id="33" value="" style="rounded=1;whiteSpace=wrap;html=1;strokeWidth=2;fontSize=16;labelBackgroundColor=none;fillColor=none;strokeColor=#FF6666;fontFamily=Lucida Console;" parent="1" vertex="1">
                    <mxGeometry x="240" y="330" width="40" height="240" as="geometry"/>
                </mxCell>
                <mxCell id="38" value="" style="endArrow=none;html=1;fontSize=16;fillColor=#a20025;strokeColor=#6F0000;strokeWidth=2;fontFamily=Lucida Console;" parent="1" edge="1">
                    <mxGeometry width="50" height="50" relative="1" as="geometry">
                        <mxPoint x="250" y="450" as="sourcePoint"/>
                        <mxPoint x="270" y="430" as="targetPoint"/>
                    </mxGeometry>
                </mxCell>
                <mxCell id="39" value="" style="endArrow=none;html=1;fontSize=16;fillColor=#a20025;strokeColor=#6F0000;strokeWidth=2;fontFamily=Lucida Console;" parent="1" edge="1">
                    <mxGeometry width="50" height="50" relative="1" as="geometry">
                        <mxPoint x="270" y="450" as="sourcePoint"/>
                        <mxPoint x="250" y="430" as="targetPoint"/>
                    </mxGeometry>
                </mxCell>
                <mxCell id="40" value="x=8" style="text;html=1;align=center;verticalAlign=middle;resizable=0;points=[];autosize=1;strokeColor=none;fillColor=none;fontSize=16;fontFamily=Lucida Console;" parent="1" vertex="1">
                    <mxGeometry x="355" y="570" width="50" height="30" as="geometry"/>
                </mxCell>
                <mxCell id="48" value="entries" style="text;html=1;align=center;verticalAlign=middle;resizable=0;points=[];autosize=1;strokeColor=none;fillColor=none;fontSize=16;fontFamily=Lucida Console;" parent="1" vertex="1">
                    <mxGeometry x="324" y="300" width="90" height="30" as="geometry"/>
                </mxCell>
                <mxCell id="52" value="" style="endArrow=none;html=1;fontSize=16;fillColor=#a20025;strokeColor=#0000FF;strokeWidth=2;fontFamily=Lucida Console;" parent="1" edge="1">
                    <mxGeometry width="50" height="50" relative="1" as="geometry">
                        <mxPoint x="370" y="530" as="sourcePoint"/>
                        <mxPoint x="390" y="510" as="targetPoint"/>
                    </mxGeometry>
                </mxCell>
                <mxCell id="53" value="" style="endArrow=none;html=1;fontSize=16;fillColor=#a20025;strokeColor=#0000FF;strokeWidth=2;fontFamily=Lucida Console;" parent="1" edge="1">
                    <mxGeometry width="50" height="50" relative="1" as="geometry">
                        <mxPoint x="390" y="530" as="sourcePoint"/>
                        <mxPoint x="370" y="510" as="targetPoint"/>
                    </mxGeometry>
                </mxCell>
                <mxCell id="55" value="&lt;div style=&quot;orphans: 4; text-align: left;&quot;&gt;&lt;span style=&quot;background-color: initial;&quot;&gt;nextindex=6, lastIndex=5, lastterm=4&lt;/span&gt;&lt;/div&gt;" style="text;html=1;align=center;verticalAlign=middle;resizable=0;points=[];autosize=1;strokeColor=none;fillColor=none;fontSize=16;fontFamily=Lucida Console;" parent="1" vertex="1">
                    <mxGeometry x="75" y="280" width="370" height="30" as="geometry"/>
                </mxCell>
                <mxCell id="56" value="node0" style="text;html=1;align=center;verticalAlign=middle;resizable=0;points=[];autosize=1;strokeColor=none;fillColor=none;fontSize=16;fontFamily=Lucida Console;" parent="1" vertex="1">
                    <mxGeometry x="125" y="445" width="70" height="30" as="geometry"/>
                </mxCell>
                <mxCell id="57" value="node1" style="text;html=1;align=center;verticalAlign=middle;resizable=0;points=[];autosize=1;strokeColor=none;fillColor=none;fontSize=16;fontFamily=Lucida Console;" parent="1" vertex="1">
                    <mxGeometry x="125" y="525" width="70" height="30" as="geometry"/>
                </mxCell>
                <mxCell id="60" value="" style="shape=curlyBracket;whiteSpace=wrap;html=1;rounded=1;labelPosition=left;verticalLabelPosition=middle;align=right;verticalAlign=middle;strokeColor=#00FF00;rotation=90;" vertex="1" parent="1">
                    <mxGeometry x="355" y="250" width="20" height="160" as="geometry"/>
                </mxCell>
            </root>
        </mxGraphModel>
    </diagram>
</mxfile>